<?xml version="1.0" encoding="UTF-8" standalone="no"?>
<!DOCTYPE svg PUBLIC "-//W3C//DTD SVG 1.1//EN" "http://www.w3.org/Graphics/SVG/1.1/DTD/svg11.dtd">
<svg width="100%" height="100%" viewBox="0 0 1080 1080" version="1.1" xmlns="http://www.w3.org/2000/svg" xmlns:xlink="http://www.w3.org/1999/xlink" xml:space="preserve" xmlns:serif="http://www.serif.com/" style="fill-rule:evenodd;clip-rule:evenodd;stroke-linejoin:round;stroke-miterlimit:2;">
    <g transform="matrix(2.9715,0,0,2.9715,-560.682,-974.55)">
        <g opacity="0.48">
            <g transform="matrix(1,0,0,1,189,92.5)">
                <path d="M90.5,249C90.5,249 173.686,249.577 190.491,249C190.913,248.986 190.491,254.044 190.491,254.044C190.491,254.044 182.384,254.867 179.261,256C176.461,257.015 175.54,258.283 171.749,260.839C169.039,262.667 166.563,266.499 165.27,270.012C163.812,273.973 163.115,279.687 163,284.611C162.622,300.805 163,367.178 163,367.178L155,358.5L152,349.5L142,338.5C144.667,336.167 145.333,331.833 144,325.5C142.6,320.233 139.767,316.4 135.5,314C131.833,313.333 129.667,314.167 129,316.5C129,321.5 127.5,325 124.5,327C124.5,327 122.931,322.417 120.108,321.453C118.042,320.748 113.154,322.167 111.487,325.5L111.487,284.611C111.487,284.611 111.15,276.55 109.736,273.115C107.986,268.865 108.341,265.226 100,259.612C98.987,258.93 96.339,256.925 93.234,256C88.053,254.457 81.87,254.044 81.87,254.044L81.87,249.366L90.5,249Z" style="fill:white;fill-rule:nonzero;"/>
            </g>
            <g transform="matrix(1,0,0,1,189,92.5)">
                <path d="M133.5,318C137.5,321 139.333,326.167 139,333.5L136,340.5L147,352.5L150,361.5L156,369.5L166.5,380L169,381.5L170,385.5L169,390.5L165.5,395L163.5,395L159.5,399L150.5,400C148.967,397.867 145.967,397.2 141.5,398C137.433,400.933 131.433,401.933 123.5,401C115.9,404.067 110.067,408.9 106,415.5L94.5,432L92.5,433L90,431.5L82.5,441L73.5,445L72,443.5L72,365C84.333,360.467 94.833,353.8 103.5,345L106,353.273L106,346.5L105,343.5C106,338.433 108.167,334.6 111.5,332L117.5,328L120,328L119,334C124.933,335.2 128.6,333.7 130,329.5L132,326.5L133.5,318ZM120,342C118,344.667 118.184,347.167 121.517,346.5L122.054,350L120,354C118.667,356.667 119.172,356.605 115.839,356.605L115,360C120.333,360 124,358 126,354L126,345L120,342ZM132.483,356.605L127.585,362L132,363.468L132.483,356.605ZM134,359C132,361.667 134.598,365.667 137.932,365L134,359ZM158.483,382.214L164,387C165.333,387.667 166.711,385.434 166.044,383.434L158.483,382.214Z" style="fill:white;fill-rule:nonzero;"/>
            </g>
            <g transform="matrix(1,0,0,1,189,92.5)">
                <path d="M161.5,403L163,403.5L163,503L139.5,503L128.5,505C117.167,508 107.833,513 100.5,520L100,517.5L104,511.5L105,504.5C108.133,501.633 109.8,497.3 110,491.5L120,472L122.5,471L133.5,470C134.5,471.667 136.833,472 140.5,471L149,463.5L150,454.5L137,438.5L133.5,431L122.5,424L117,424C118.4,418.267 121.233,413.6 125.5,410L141.5,404L146.5,404C148.433,405.733 151.433,406.4 155.5,406L161.5,403Z" style="fill:white;fill-rule:nonzero;"/>
            </g>
            <g transform="matrix(1,0,0,1,189,92.5)">
                <path d="M110.5,430L122.5,430L132,437.5L134,442.5L146,455.5L146,459.5L143.5,463C142.033,462.533 141.533,463.033 142,464.5C141,466.5 138.5,467 134.5,466L129.5,465L118.5,467L116,469.5L105,490.5C105,495.167 103.667,498.5 101,500.5L100,507.5L95.5,515C94.033,514.533 93.533,515.033 94,516.5C93.2,521.7 91.033,525.533 87.5,528C84.433,527.067 83.6,528.567 85,532.5L81.5,543C81.5,543 78.675,540.225 77.53,538.622C76.28,536.872 74.703,534.748 74,532.5C73.078,529.552 72.102,524.844 72,520.933C71.667,508.099 72,455.5 72,455.5L75.5,453L85.5,451C87.367,446.867 90.7,444.2 95.5,443C96.767,447.067 100.433,448.733 106.5,448L106.5,445.956C101.1,446.023 98.067,444.794 96.467,441.06C95.734,438.86 96.948,437.972 98.681,438.505L104,437C103.533,434.467 104.367,432.8 106.5,432L110.5,430ZM119.626,441.5L122.5,446.297L127.209,445.462C127.421,442.78 122.923,439.229 119.626,441.5ZM258.553,463.442C265.536,463.293 273.926,463.49 279.5,464C283.732,464.387 292,466.5 292,466.5C292,466.5 266.917,468.25 256.5,470C247.331,471.54 240.327,472.584 229.5,477C215.904,482.546 191.967,495.467 177.5,509L173,509L173,486.5L183.539,480.725C183.539,480.725 190.085,477.358 193.5,476C197.993,474.213 204.716,471.631 210.5,470C217,468.167 225.049,466.017 232.5,465C240.509,463.907 250.72,463.609 258.553,463.442Z" style="fill:white;fill-rule:nonzero;"/>
            </g>
            <g transform="matrix(1,0,0,1,189,92.5)">
                <path d="M270.221,476.713L294,474.5L288.951,475.786L261.5,485C246.767,490.933 234.1,498.933 223.5,509L192,509C191.267,507.2 204.186,497.397 211.536,493.522C220.348,488.876 240.192,482.246 244.876,481.122C253.487,479.054 270.221,476.713 270.221,476.713Z" style="fill:white;fill-rule:nonzero;"/>
            </g>
            <g transform="matrix(1,0,0,1,189,92.5)">
                <path d="M286.505,484.566L294,483L292,486.5L286.505,498.121L280.126,502.824L270.5,509L237,509C236.267,507.2 243.863,502.824 243.863,502.824C243.863,502.824 265.572,488.966 286.505,484.566Z" style="fill:white;fill-rule:nonzero;"/>
            </g>
            <g transform="matrix(1,0,0,1,189,92.5)">
                <path d="M306.5,484L310,484L306.5,510L304.788,528L301.5,558L150.5,558L150,556L159.5,543L167,532.158L173.5,517C173.5,517 253.992,519.175 274.5,517C282.992,516.1 291.214,509.452 296.548,503.952C301.722,498.617 306.5,484 306.5,484ZM165.5,510C167.5,509.4 168,510.567 167,513.5L159,536.5C155.2,543.433 149.25,549.75 144.5,554C140.494,557.584 134.333,560.333 130.5,562C127.682,563.225 124.561,563.722 121.5,564C117.833,564.333 112.083,564.333 108.5,564C105.602,563.73 100,562 100,562L107.29,556.5C107.29,556.5 140.534,532.325 145.543,528C147.709,526.129 139.838,529.147 137.341,530.549C128.584,535.466 106,544.5 93,557.5L85,568L83,567.5C86.533,547.7 95.033,532.867 108.5,523C114.833,518.333 119.723,516.339 124.39,514.506C128.227,512.999 132.388,512.293 136.5,512C142.352,511.582 159.5,512 159.5,512L165.5,510Z" style="fill:white;fill-rule:nonzero;"/>
            </g>
        </g>
    </g>
</svg>
