<?xml version="1.0" encoding="UTF-8" standalone="no"?>
<!DOCTYPE svg PUBLIC "-//W3C//DTD SVG 1.1//EN" "http://www.w3.org/Graphics/SVG/1.1/DTD/svg11.dtd">
<svg width="100%" height="100%" viewBox="0 0 1080 1080" version="1.1" xmlns="http://www.w3.org/2000/svg" xmlns:xlink="http://www.w3.org/1999/xlink" xml:space="preserve" xmlns:serif="http://www.serif.com/" style="fill-rule:evenodd;clip-rule:evenodd;">
    <g transform="matrix(1,0,0,1,11.293,91.5001)">
        <path d="M305.5,553L306,556.5L305,556.5L305.5,553Z" style="fill:rgb(254,254,254);fill-rule:nonzero;stroke:rgb(254,254,254);stroke-width:1px;"/>
    </g>
    <g transform="matrix(1,0,0,1,11.293,91.5001)">
        <path d="M131.5,431L135,434.5L138,441.5L148,452.5L149,461.5L142.5,469L143,465.5L144.5,463L144,464.5L144.5,466C147.3,464.867 147.8,463.7 146,462.5L148,458.5L146,454.5L147,452.5L145.5,453C144.033,453.533 143.533,453.033 144,451.5C138.267,447.233 133.933,441.567 131,434.5L133,433.5L131.5,431ZM135,436L134,439L135,439L135,436ZM136,439L135,441L137,442L136,439ZM141,445L140,447L143,449L141,445ZM135.5,469L141,469.5L135.5,470L135.5,469ZM134.5,532L136,532.5L132.5,535L132,533L134.5,532ZM130.5,534L131,535.5C130,537.5 129,537.5 128,535.5L130,535.5L130.5,534ZM125.5,536L128,537.5L126,538.5L126.5,537L124.5,538L125.5,536ZM121.5,538L123,538.5L120.5,540L121.5,538ZM124.5,539L123.5,541L120.5,543L122.5,540L124.5,539Z" style="fill:white;fill-rule:nonzero;stroke:white;stroke-width:1px;"/>
    </g>
    <g transform="matrix(1,0,0,1,11.293,91.5001)">
        <path d="M90.5,249C90.5,249 175.824,249.577 192.629,249C193.662,248.965 188.476,256 188.476,256C188.476,256 178.979,259.213 173.98,261.769C171.07,263.257 166.625,270.201 164.712,274.101C163.055,277.479 162.59,281.408 162.5,285.169C162.131,300.652 162.5,367 162.5,367L155,358.5L152,349.5L142,338.5C144.667,336.167 145.333,331.833 144,325.5C142.6,320.233 139.767,316.4 135.5,314C131.833,313.333 129.667,314.167 129,316.5C129,321.5 127.5,325 124.5,327L121.5,323C115.833,322.333 112.167,323.667 110.5,327L110,286.5C110,286.5 109.663,278.93 108.249,275.495C106.499,271.245 105.721,267.383 97.38,261.769C94.677,259.95 83,256 83,256C83,256 77.024,248.995 77.939,249C80.977,249.016 90.5,249 90.5,249Z" style="fill:rgb(67,88,11);fill-rule:nonzero;stroke:rgb(67,88,11);stroke-width:1px;"/>
    </g>
    <g transform="matrix(1,0,0,1,11.293,91.5001)">
        <path d="M133.5,318C137.5,321 139.333,326.167 139,333.5L136,340.5L147,352.5L150,361.5L156,369.5L166.5,380L169,381.5L170,385.5L169,390.5L165.5,395L163.5,395L159.5,399L150.5,400C148.967,397.867 145.967,397.2 141.5,398C137.433,400.933 131.433,401.933 123.5,401C115.9,404.067 110.067,408.9 106,415.5L94.5,432L92.5,433L90,431.5L82.5,441L73.5,445L72,443.5L72,365C84.333,360.467 94.833,353.8 103.5,345L106,353.273L106,346.5L105,343.5C106,338.433 108.167,334.6 111.5,332L117.5,328L120,328L119,334C124.933,335.2 128.6,333.7 130,329.5L132,326.5L133.5,318ZM120,342C118,344.667 118.184,347.167 121.517,346.5L122.054,350L120,354C118.667,356.667 119.172,356.605 115.839,356.605L115,360C120.333,360 124,358 126,354L126,345L120,342ZM132.483,356.605L127.585,362L132,363.468L132.483,356.605ZM134,359C132,361.667 134.598,365.667 137.932,365L134,359ZM158.483,382.214L164,387C165.333,387.667 166.711,385.434 166.044,383.434L158.483,382.214Z" style="fill:rgb(67,88,11);fill-rule:nonzero;stroke:rgb(67,88,11);stroke-width:1px;"/>
    </g>
    <g transform="matrix(1,0,0,1,11.293,91.5001)">
        <path d="M161.5,403L163,403.5L163,503L139.5,503L128.5,505C117.167,508 107.833,513 100.5,520L100,517.5L104,511.5L105,504.5C108.133,501.633 109.8,497.3 110,491.5L120,472L122.5,471L133.5,470C134.5,471.667 136.833,472 140.5,471L149,463.5L150,454.5L137,438.5L133.5,431L122.5,424L117,424C118.4,418.267 121.233,413.6 125.5,410L141.5,404L146.5,404C148.433,405.733 151.433,406.4 155.5,406L161.5,403Z" style="fill:rgb(67,88,11);fill-rule:nonzero;stroke:rgb(67,88,11);stroke-width:1px;"/>
    </g>
    <g transform="matrix(1,0,0,1,11.293,91.5001)">
        <path d="M110.5,430L122.5,430L132,437.5L134,442.5L146,455.5L146,459.5L143.5,463C142.033,462.533 141.533,463.033 142,464.5C141,466.5 138.5,467 134.5,466L129.5,465L118.5,467L116,469.5L105,490.5C105,495.167 103.667,498.5 101,500.5L100,507.5L95.5,515C94.033,514.533 93.533,515.033 94,516.5C93.2,521.7 91.033,525.533 87.5,528C84.433,527.067 83.6,528.567 85,532.5L81.5,543C81.5,543 78.675,540.225 77.53,538.622C76.28,536.872 74.703,534.748 74,532.5C73.078,529.552 72.102,524.844 72,520.933C71.667,508.099 72,455.5 72,455.5L75.5,453L85.5,451C87.367,446.867 90.7,444.2 95.5,443C96.767,447.067 100.433,448.733 106.5,448L106.5,445.956C101.1,446.023 98.067,444.794 96.467,441.06C95.734,438.86 96.948,437.972 98.681,438.505L104,437C103.533,434.467 104.367,432.8 106.5,432L110.5,430ZM119.626,441.5L122.5,446.297L127.209,445.462C127.421,442.78 122.923,439.229 119.626,441.5ZM258.553,463.442C265.536,463.293 273.926,463.49 279.5,464C283.732,464.387 292,466.5 292,466.5C292,466.5 266.917,468.25 256.5,470C247.331,471.54 240.327,472.584 229.5,477C215.904,482.546 191.967,495.467 177.5,509L173,509L173,486.5L183.539,480.725C183.539,480.725 190.085,477.358 193.5,476C197.993,474.213 204.716,471.631 210.5,470C217,468.167 225.049,466.017 232.5,465C240.509,463.907 250.72,463.609 258.553,463.442Z" style="fill:rgb(67,88,11);fill-rule:nonzero;stroke:rgb(67,88,11);stroke-width:1px;"/>
    </g>
    <g transform="matrix(1,0,0,1,11.293,91.5001)">
        <path d="M270.221,476.713L294,474.5L288.951,475.786L261.5,485C246.767,490.933 234.1,498.933 223.5,509L192,509C191.267,507.2 204.186,497.397 211.536,493.522C220.348,488.876 240.192,482.246 244.876,481.122C253.487,479.054 270.221,476.713 270.221,476.713Z" style="fill:rgb(67,88,11);fill-rule:nonzero;stroke:rgb(67,88,11);stroke-width:1px;"/>
    </g>
    <g transform="matrix(1,0,0,1,11.293,91.5001)">
        <path d="M286.505,484.566L294,483L292,486.5L286.505,498.121L280.126,502.824L270.5,509L237,509C236.267,507.2 243.863,502.824 243.863,502.824C243.863,502.824 265.572,488.966 286.505,484.566Z" style="fill:rgb(67,88,11);fill-rule:nonzero;stroke:rgb(67,88,11);stroke-width:1px;"/>
    </g>
    <g transform="matrix(1,0,0,1,11.293,91.5001)">
        <path d="M306.5,484L310,484L309.382,488.795L309,494.5L308.107,502.5L307,511.5L303.419,535.455L301.5,558L150.5,558L150,556L159.5,543L167,532.158L172.33,520.863L173.5,517L274.5,517C285.233,515.067 293.067,510.233 298,502.5L306.5,484ZM165.5,510C167.5,509.4 168,510.567 167,513.5L159,536.5C155.2,543.433 149.25,549.75 144.5,554C140.494,557.584 134.333,560.333 130.5,562C127.682,563.225 124.561,563.722 121.5,564C117.833,564.333 112.083,564.333 108.5,564C105.602,563.73 100,562 100,562L107.29,556.5C107.29,556.5 140.534,532.325 145.543,528C147.709,526.129 139.838,529.147 137.341,530.549C128.584,535.466 106,544.5 93,557.5L85,568L83,567.5C86.533,547.7 95.033,532.867 108.5,523C114.833,518.333 119.723,516.339 124.39,514.506C128.227,512.999 132.388,512.293 136.5,512C142.352,511.582 159.5,512 159.5,512L165.5,510Z" style="fill:rgb(67,88,11);fill-rule:nonzero;stroke:rgb(67,88,11);stroke-width:1px;"/>
    </g>
    <g transform="matrix(1,0,0,1,29.0244,87.0001)">
        <path d="M868.5,427L871,428.5L916,543.5L923.5,554L929,556.5L928.5,558L889,558L890.5,555C894.233,554.733 896.733,553.233 898,550.5L897,541.5L882.5,506C881.633,512.8 878.967,517.8 874.5,521C871.767,523.6 867.433,524.6 861.5,524L847.5,516L843.5,516C839.433,516.933 836.6,519.1 835,522.5L827,547.5L829,553L837,556.5L836.5,558L806.5,558L805.5,559L795.5,559C786.233,557.267 779.4,553.1 775,546.5L755,510.5L745.5,500C740.833,497.6 734.667,496.933 727,498L727,546.5L731.5,554L738,556.5L737.5,558L700,558C698.867,555 700.033,554 703.5,555L708,551.5L710,545.5L710,440.5L705.5,433L700,432L700.5,429L758.5,429L768.5,431C774.367,433.2 779.2,436.367 783,440.5C788.8,446.033 790.8,455.367 789,468.5C787.2,476.033 783.7,481.867 778.5,486L764.5,494C760.833,493.667 758.333,494.5 757,496.5C763.6,498.567 768.6,502.233 772,507.5L797,549L805.5,554L812.5,554L817,550.5L823,539.5C837,500.833 852.167,463.333 868.5,427ZM729,434L727,436L727,493L747,493L755,491L760,488L766,482L771,468L771,458L767,446C763.667,440.667 759.333,437 754,435L749,434L729,434ZM861,456L839,512L840,514C842.667,510 847.333,507.667 854,507L861,507L873,514L877,514L881,502L863,458C863.667,456 863,455.333 861,456ZM850,512L850,514C855.333,513.333 859.333,514 862,516L864,516L856,512L850,512ZM316,429L356.5,429L357,430.5L350.5,433L347,436.5L345,444.5L345,517.5L348,534.5C350.333,540.5 353.833,545.333 358.5,549L368.5,554L382.5,555L395.5,551L406,541.5L411,531.5L413,521.5L413,442.5C412.4,438.1 410.567,434.933 407.5,433L401,430.5L401.5,429L430,429L428.5,432C424.767,431.933 422.267,433.1 421,435.5L419,439.5L419,448.5L418,449.5L418,527.5C416,538.167 411.5,546.333 404.5,552L394.5,558L383.5,561L364.5,561L347.5,556L335,545.5L330,536.5L327,523.5L327,441.5C326.2,437.7 324.367,434.867 321.5,433L316,430.5L316,429ZM442,429L469.5,429L471,430.5L512,522C514,522.867 514.667,522.033 514,519.5L551,436.5L555.5,429L581.5,429L582,430.5L573,435.5L570,442.5L570,459.5L571,460.5L571,478.5L572,479.5L572,496.5L573,497.5L575,545.5L578.5,553L586,556.5L585.5,558L547,558L548.5,555C552.633,555.467 555.133,554.3 556,551.5L558,544.5L558,538.5L557,537.5L557,521.5L556,520.5L554,473.5L553,472.5L553,456.5L551.5,451L507.5,550L504,548.5L460.5,454C458.567,458.733 458.067,464.9 459,472.5L458,473.5L458,491.5L457,492.5L455,544.5C455.6,548.9 457.433,552.067 460.5,554L467,556.5L466.5,558L437,558L438.5,555C442.633,555.467 445.133,554.3 446,551.5L449,543.5L454,444.5C453.2,439.3 451.033,435.467 447.5,433L442,430.5L442,429ZM600,429L681.5,429L682,430.5L683,431.5L683,450.5L684,453.5L681,455C680,447.2 676.5,441.533 670.5,438L658.5,434L627,434L627,489L652.5,489L662,483.5L666.5,474L668,475.5L668,507.5L665,509C664.933,502.867 662.767,498.533 658.5,496L652.5,494L627,494L627,545.5L628,549.5L630.5,552L632.5,553L658.5,553C667.1,551.6 673.6,548.1 678,542.5L685.5,529C687.033,529.533 687.533,531.033 687,533.5L686,534.5L684,558L600.5,558L600,556.5L609,550.5L610,547.5L610,438.5L605.5,433L600,430.5L600,429Z" style="fill:rgb(67,88,11);fill-rule:nonzero;stroke:rgb(67,88,11);stroke-width:1px;"/>
    </g>
</svg>
